<?xml version="1.0" encoding="UTF-8"?>
<svg width="176" height="149" viewBox="0 0 176 149" fill="none" xmlns="http://www.w3.org/2000/svg">
<g clip-path="url(#clip0)">
<path d="M32.6165 44.444C32.2692 44.4756 32.0166 44.5071 31.764 44.5703C29.5537 45.1069 28.8907 44.8859 27.5961 43.0867C25.8279 40.6563 24.9753 40.4669 22.323 41.9504C19.1971 43.6865 16.1343 45.5803 12.9136 47.0639C10.7665 48.0739 8.33524 48.5474 6.03026 49.2102C4.73567 49.589 4.13575 48.7999 4.3252 47.7267C4.48307 46.6851 4.86198 45.5172 5.55663 44.7912C7.57744 42.6448 9.914 40.9088 12.8821 40.1512C20.8706 38.1311 28.0697 34.5643 33.8479 28.5355C34.9847 27.3361 36.0898 25.9788 36.8476 24.5268C38.3948 21.5282 39.1526 17.9614 43.131 16.8567C43.0995 16.6673 43.0679 16.4779 43.0363 16.2885C42.2469 15.9413 41.4891 15.2785 40.6682 15.2469C28.1329 14.5209 15.9133 16.0676 4.04102 20.2656C2.52542 20.7707 0.725633 20.1394 0.15728 18.8768C-0.316347 17.8036 0.346731 16.2254 1.98864 15.6572C4.4515 14.8365 7.04066 14.1737 9.59825 13.7634C18.2814 12.3114 26.6804 9.78623 35.0478 7.13482C35.5846 6.977 36.1845 6.72448 36.7213 6.78761C39.9735 7.13482 42.7206 5.93537 45.1518 3.97838C46.3833 2.99988 47.3621 1.64261 48.5935 0.664107C49.1619 0.222205 50.1091 0.0643825 50.8985 0.032818C53.4245 -0.0303109 55.9505 0.032818 58.4766 0.032818C66.844 0.032818 75.2114 0.0643825 83.5788 0.0643825C91.0305 0.0643825 98.5138 0.00125358 105.966 0.032818C109.597 0.032818 113.228 0.127511 116.859 0.316898C121.437 0.537849 123.869 2.96831 124.121 7.57672C124.216 9.02869 124.184 10.5122 124.09 11.9957C123.963 13.7318 123.458 15.31 121.564 16.2254C123.869 17.7405 124.279 19.9184 124.184 22.3805C124.09 25.4738 124.09 28.5987 124.153 31.692C124.184 32.7652 123.837 33.4911 122.985 34.0909C121.753 34.9747 120.553 35.9216 119.069 37.0579C119.827 37.1211 120.269 37.1842 120.68 37.1842C131.51 37.1842 142.372 37.2157 153.202 37.2157C155.507 37.2157 157.844 36.9632 160.117 37.2473C165.074 37.9102 167.032 40.3406 167.095 45.3278C167.095 45.7066 167.095 46.0538 167.095 46.4326C167.127 47.4742 167.127 48.358 165.927 49.0209C164.853 49.6521 164.095 50.8832 163.085 51.9564C167.758 54.6709 168.011 59.153 167.821 63.8246C170.221 62.6251 172.589 63.2564 174.894 63.2249C175.178 63.2249 175.652 64.014 175.715 64.4874C175.841 65.75 175.747 67.0126 175.747 68.2752C175.747 70.8635 175.747 70.8635 173.157 71.0528C172.242 73.3571 172.589 75.7244 172.905 78.1233C173.284 80.8378 173.789 83.5208 174.042 86.2354C174.263 88.508 173.6 90.6228 172.179 92.4535C171.863 92.8639 171.2 93.3373 170.821 93.2427C170.347 93.1164 169.684 92.4851 169.621 92.0116C169.4 90.1493 169.432 88.2555 169.337 86.3932C169.242 84.2468 169.179 82.1004 168.926 79.9856C168.832 79.1333 168.326 78.3127 167.853 77.5867C166.495 75.5034 165.358 75.8191 164.159 77.9339C163.559 79.0071 163.464 80.4591 163.306 81.7216C163.117 83.3945 162.517 84.6256 161.19 85.7619C156.612 89.6127 154.623 94.884 153.455 100.566C152.476 105.237 151.655 109.94 150.55 114.612C150.076 116.632 149.066 118.526 148.308 120.483C147.992 121.303 147.455 121.398 146.666 121.083C145.245 120.483 144.487 119.41 144.424 117.926C144.361 116.79 144.424 115.59 144.708 114.486C146.634 106.784 147.266 98.9558 147.771 91.0647C147.929 88.4133 148.434 85.7934 148.845 82.7948C147.518 83.3314 146.129 83.6471 145.087 84.4046C143.256 85.7619 141.519 87.3401 139.909 88.9815C138.393 90.5597 137.067 92.3589 135.741 94.1265C135.015 95.0734 134.162 95.3575 133.025 95.6731C131.478 96.0835 129.931 96.9041 128.668 97.9142C127.247 99.0505 126.3 100.755 124.879 101.891C123.616 102.901 121.974 103.406 120.522 104.196C120.016 104.48 119.353 104.732 119.101 105.174C117.68 107.636 116.291 110.098 115.028 112.623C113.259 116.158 111.175 119.346 107.765 121.556C107.197 121.935 106.881 122.945 106.755 123.702C106.344 126.228 106.25 128.847 105.745 131.341C105.018 134.971 101.924 137.212 98.4191 136.833C97.5981 136.738 96.3351 136.297 96.2088 135.792C96.0194 135.002 96.3983 133.771 96.9666 133.14C98.2612 131.783 99.8084 130.647 101.261 129.447C102.713 128.248 103.976 126.859 104.071 124.87C104.134 123.576 104.482 122.566 105.145 121.43C105.713 120.483 105.902 119.094 105.808 117.958C105.555 114.738 106.155 111.771 107.607 108.835C109.06 105.932 110.133 102.838 111.333 99.8081C111.554 99.2399 111.744 98.6402 112.123 97.4723C110.607 97.7248 109.439 97.7564 108.397 98.1351C106.66 98.8296 105.05 100.029 103.092 98.577C102.903 98.4192 102.24 98.6402 101.956 98.8927C100.093 100.439 98.1981 101.923 96.5246 103.596C94.788 105.332 93.3039 107.32 91.6304 109.151C91.1568 109.688 90.5253 110.224 89.8622 110.445C86.7047 111.518 85.2838 114.138 83.9577 116.853C82.9157 118.936 81.7159 120.893 79.474 121.966C78.4005 122.471 77.5479 122.408 76.948 121.335C76.7586 120.988 76.6638 120.483 76.7586 120.104C78.0216 116.253 79.3161 112.434 80.6423 108.615C81.3685 106.5 82.2211 104.385 83.0736 102.081C82.0947 101.891 81.1475 101.513 80.2002 101.513C77.6742 101.544 75.1167 101.481 72.6538 101.923C71.3276 102.175 70.0015 103.154 68.9279 104.101C67.6649 105.206 66.7177 106.626 65.6125 107.889C64.0022 109.719 61.9814 110.666 59.487 110.635C58.8239 110.635 58.0029 111.077 57.4661 111.55C51.1827 117.169 46.478 123.986 42.6574 131.436C40.6366 135.35 38.7737 139.358 37.0055 143.399C36.0582 145.545 34.1006 146.523 32.5534 147.975C32.3639 148.133 31.6377 148.039 31.4482 147.818C30.5957 146.681 29.4906 145.545 29.1117 144.251C28.3855 141.726 28.7959 139.295 30.6273 137.18C33.2164 134.15 35.7109 131.025 38.2053 127.9C40.9524 124.397 43.2573 120.672 44.2362 116.253C44.3625 115.685 44.8045 115.148 45.1518 114.612C51.4985 104.511 52.4457 94.0002 47.4253 83.0789C47.0148 82.1951 46.5727 81.5954 45.436 81.4376C44.6466 81.3113 43.8573 80.4906 43.2889 79.7962C41.6786 77.8076 40.4472 77.6183 38.8052 79.5752C34.5426 84.7203 30.4063 89.96 26.2068 95.1365C25.8594 95.5784 25.5121 95.9888 24.7859 96.3044C25.1016 95.0734 25.1648 93.7161 25.7331 92.6429C27.3119 89.6443 28.9222 86.6141 30.8799 83.8364C33.0586 80.7431 35.6162 77.9339 37.9843 74.9668C39.8472 72.6311 39.3736 67.5492 37.1318 65.5291C35.7109 64.2349 32.0797 64.4874 30.8799 65.971C26.712 71.0528 22.4809 76.1032 18.4393 81.2797C17.2394 82.7948 16.008 83.2367 13.8293 82.6686C14.3345 80.8694 14.4924 78.8808 15.4396 77.3973C17.271 74.4934 19.4181 71.7473 21.6915 69.159C24.0912 66.476 26.933 64.1402 29.4274 61.5204C31.9219 58.9005 33.8795 55.9019 34.2269 52.1457C34.511 49.4312 33.8164 46.906 32.6165 44.444ZM49.1303 1.01132C49.1303 11.6485 49.1303 22.1911 49.1303 32.5126C54.1823 32.5126 59.1396 32.6073 64.0654 32.4811C66.4966 32.4179 67.9175 30.9029 68.1701 28.4724C68.3911 26.4838 68.3911 24.4953 68.4543 22.5067C68.549 19.2871 67.8859 16.5095 64.0654 15.6257C67.4123 13.8265 67.7912 14.0474 67.8228 8.90243C67.8228 8.33427 67.6965 7.76611 67.6333 7.19795C67.1281 3.44178 65.5178 1.39009 61.7919 1.10601C57.624 0.758801 53.393 1.01132 49.1303 1.01132ZM113.323 18.4665C114.901 18.3402 115.659 18.9084 115.691 20.2972C115.754 22.1279 115.817 23.9587 115.849 25.821C115.88 28.1252 115.849 30.3978 115.849 32.702C118.469 32.702 120.932 32.702 123.332 32.702C123.395 32.5126 123.427 32.418 123.427 32.2917C123.458 28.9143 123.395 25.5685 123.49 22.1911C123.584 19.3187 122.827 17.1408 119.732 16.1307C121.816 15.7519 123.174 14.6472 123.3 12.5955C123.427 10.5122 123.553 8.36584 123.269 6.31415C122.795 2.90518 120.743 1.23227 117.269 0.948187C116.48 0.885058 115.691 0.821929 114.901 0.821929C111.618 0.821929 108.302 0.821929 104.987 0.821929C104.987 11.617 104.987 22.1595 104.987 32.702C107.797 32.702 110.481 32.702 113.323 32.702C113.323 27.8727 113.323 23.2327 113.323 18.4665ZM148.055 70.2953C146.792 66.0341 145.75 61.8045 144.235 57.7326C142.94 54.2921 143.035 51.1357 144.424 47.7898C145.655 44.8228 146.476 41.6663 147.582 38.3836C145.498 38.3836 143.603 38.4783 141.709 38.3521C140.225 38.2574 139.435 38.6362 139.151 40.2144C138.898 41.6348 138.362 43.0236 137.92 44.444C137.383 46.1485 136.846 47.853 136.309 49.5574C136.183 49.5259 136.057 49.5259 135.962 49.4943C135.962 45.8328 135.962 42.1714 135.962 38.5099C133.152 38.5099 130.468 38.5099 127.721 38.5099C127.721 49.1471 127.721 59.6896 127.721 70.2953C130.499 70.2953 133.183 70.2953 136.025 70.2953C136.025 66.1604 136.025 62.1517 136.025 58.1114C136.12 58.1114 136.246 58.0799 136.341 58.0799C137.383 62.1517 138.393 66.2235 139.435 70.3269C142.277 70.2953 145.056 70.2953 148.055 70.2953ZM126.3 70.2953C124.721 59.6581 123.142 49.084 121.564 38.4152C117.964 38.4152 114.491 38.4783 111.018 38.3836C109.691 38.3521 109.344 38.8571 109.218 40.0565C108.586 45.2647 107.828 50.4728 107.165 55.6494C106.534 60.5103 105.902 65.3712 105.239 70.2637C108.176 70.2637 110.986 70.2637 113.891 70.2637C114.08 68.3699 114.238 66.5707 114.396 64.7084C114.901 64.6768 115.312 64.6768 115.722 64.6137C117.143 64.3927 117.554 64.9925 117.49 66.3497C117.459 67.6439 117.712 68.938 117.838 70.3584C120.269 70.3584 122.637 70.3584 125.005 70.3584C125.416 70.3584 125.826 70.3269 126.3 70.2953ZM166.4 47.8845C166.4 46.4641 166.432 45.2016 166.4 43.939C166.306 41.2244 164.916 39.4253 162.39 38.4783C160.022 37.563 157.591 37.4051 155.096 37.7839C150.55 38.4783 148.718 40.2459 148.213 44.7597C147.739 49.1156 148.687 52.9033 152.855 55.2706C154.118 55.9966 155.223 57.0382 156.517 57.7326C159.075 59.1215 159.422 61.3626 159.17 63.9193C159.075 64.8346 158.696 65.5606 157.654 65.5922C156.517 65.6238 156.296 64.8346 156.233 63.9193C156.17 62.3095 156.044 60.6997 155.981 59.0899C153.423 59.0899 150.96 59.0899 148.466 59.0899C148.466 60.6366 148.339 62.1201 148.497 63.5721C148.971 67.928 150.865 69.9797 155.223 70.8319C156.612 71.0844 158.065 71.0528 159.454 70.9897C164.159 70.8319 166.748 68.2436 167.19 63.6036C167.663 58.3324 166.274 54.0396 161.285 51.4513C160.117 50.8516 159.043 50.094 157.97 49.3365C156.296 48.2002 155.539 46.4641 156.107 44.5703C156.265 44.0021 157.023 43.6233 157.496 43.1499C157.907 43.6549 158.538 44.0968 158.664 44.665C158.917 45.7066 158.822 46.8113 158.885 47.9477C161.254 47.9477 163.464 47.9477 165.674 47.9477C165.864 47.9792 166.085 47.9161 166.4 47.8845ZM66.6229 47.9161C66.6229 46.5273 66.6545 45.3278 66.6229 44.1284C66.4966 41.3191 65.1389 39.3937 62.455 38.4468C60.1185 37.6261 57.7503 37.4051 55.319 37.7839C50.7722 38.4783 48.9409 40.2459 48.4357 44.7597C47.962 49.1156 48.9093 52.9033 53.0772 55.2706C54.3402 55.9966 55.4453 57.0382 56.7399 57.7326C59.2975 59.1215 59.7396 61.3626 59.3291 63.8877C59.2344 64.519 58.4766 65.3712 57.8766 65.5291C56.8346 65.7816 56.5189 64.8662 56.4873 63.9193C56.4242 62.3095 56.2979 60.6997 56.2347 59.0584C53.6771 59.0584 51.2458 59.0584 48.562 59.0584C48.6883 60.9838 48.783 62.783 48.9409 64.6137C49.1619 67.6123 50.9932 69.3799 53.6456 70.3269C56.4873 71.3369 59.4238 71.3685 62.2971 70.4531C65.9283 69.3168 67.2229 67.5808 67.3807 63.793C67.4439 62.4357 67.3807 61.0469 67.3176 59.6896C67.2229 57.0698 66.244 54.8918 64.0969 53.3452C62.1708 51.9563 60.1816 50.6938 58.2555 49.3681C56.582 48.2002 55.8242 46.4957 56.3926 44.6018C56.5505 44.0337 57.2767 43.6549 57.7503 43.1814C58.1608 43.6865 58.8239 44.1284 58.9502 44.6965C59.2028 45.7382 59.1081 46.8429 59.1712 47.9477C61.6656 47.9161 64.0654 47.9161 66.6229 47.9161ZM69.9699 38.2258C69.9699 49.2102 69.9699 59.7528 69.9699 70.2637C72.7485 70.2637 75.4324 70.2637 78.2426 70.2637C78.2426 68.0858 78.2426 66.0025 78.2426 63.8877C78.2426 61.7729 78.2426 59.6265 78.2426 57.417C79.7582 57.417 81.0212 57.4801 82.2842 57.417C85.6627 57.2276 87.6204 55.46 87.7467 52.3036C87.8414 49.6206 87.8414 46.9376 87.7467 44.2546C87.6204 41.1613 86.1679 39.1727 83.0736 38.8255C78.7794 38.3521 74.422 38.4152 69.9699 38.2258ZM71.5487 0.916623C71.5487 11.6485 71.5487 22.1911 71.5487 32.702C76.3797 32.702 81.0844 32.702 85.7575 32.702C85.7575 30.5872 85.7575 28.5671 85.7575 26.4207C83.7682 26.4207 81.8737 26.4207 79.9161 26.4207C79.9161 23.9902 79.9161 21.6545 79.9161 19.1924C81.6527 19.1924 83.2315 19.1924 84.8102 19.1924C84.8102 17.1092 84.8102 15.1838 84.8102 13.1321C83.0736 13.1321 81.4632 13.1321 79.9476 13.1321C79.9476 11.0488 79.9476 9.15495 79.9476 7.07169C81.8106 7.07169 83.5156 7.07169 85.2523 7.07169C85.2523 4.92531 85.2523 2.96831 85.2523 0.916623C80.6423 0.916623 76.1271 0.916623 71.5487 0.916623ZM96.6509 26.4523C96.6509 23.9587 96.6509 21.6545 96.6509 19.224C98.3559 19.224 99.9663 19.224 101.545 19.224C101.545 17.1408 101.545 15.2469 101.545 13.1636C99.8084 13.1636 98.2296 13.1636 96.6509 13.1636C96.6509 11.0804 96.6509 9.18651 96.6509 7.10326C98.4822 7.10326 100.219 7.10326 101.892 7.10326C101.892 4.92531 101.892 2.90518 101.892 0.948187C97.2508 0.948187 92.7356 0.948187 88.2203 0.948187C88.2203 11.617 88.2203 22.1595 88.2203 32.702C93.0513 32.702 97.756 32.702 102.461 32.702C102.461 30.5872 102.461 28.5671 102.461 26.4523C100.535 26.4523 98.6401 26.4523 96.6509 26.4523ZM104.766 70.2953C104.766 68.1805 104.766 66.1919 104.766 64.0455C102.776 64.0455 100.85 64.0455 98.8927 64.0455C98.8927 61.5519 98.8927 59.2477 98.8927 56.7541C100.629 56.7541 102.24 56.7541 103.818 56.7541C103.818 54.7025 103.818 52.8402 103.818 50.82C102.145 50.82 100.535 50.82 98.8611 50.82C98.8611 48.7683 98.8611 46.8429 98.8611 44.6965C100.693 44.6965 102.429 44.6965 104.197 44.6965C104.197 42.487 104.197 40.53 104.197 38.5415C99.5558 38.5415 95.009 38.5415 90.4622 38.5415C90.4622 49.1787 90.4622 59.6896 90.4622 70.2637C95.23 70.2953 99.9347 70.2953 104.766 70.2953ZM174.989 70.2953C174.989 68.1489 174.989 66.0657 174.989 63.9193C172.968 63.9193 171.073 63.9193 169.084 63.9193C169.084 66.0972 169.084 68.1805 169.084 70.2953C171.105 70.2953 173 70.2953 174.989 70.2953Z" fill="black"/>
<path d="M24.8814 52.1141C25.1024 54.1027 24.3762 55.3021 23.271 56.1228C21.2502 57.6063 19.1663 59.0267 16.956 60.1631C16.2298 60.5418 14.9668 60.0052 14.0195 59.7212C13.8932 59.6896 13.7669 58.5533 13.9879 58.3639C16.0719 56.6278 18.1243 54.8287 20.4293 53.3767C21.6291 52.6192 23.3026 52.5245 24.8814 52.1141Z" fill="black"/>
<path d="M57.498 27.1151C57.498 24.1796 57.498 21.3388 57.498 18.4664C59.7083 18.5296 59.9293 18.7189 59.9925 20.7706C60.024 22.191 60.024 23.5799 59.9925 25.0003C59.9293 26.7679 59.5504 27.0835 57.498 27.1151Z" fill="black"/>
<path d="M57.498 13.2268C57.498 10.891 57.498 8.64997 57.498 6.44046C59.361 6.34576 59.9293 6.78767 59.9925 8.42902C60.024 9.31282 60.024 10.1966 59.9925 11.112C59.9609 13.0374 59.6452 13.3215 57.498 13.2268Z" fill="black"/>
<path d="M113.355 6.37727C114.997 6.25101 115.692 6.97699 115.755 8.36583C115.787 9.40745 115.787 10.4491 115.724 11.4907C115.629 12.9111 114.903 13.5424 113.355 13.1636C113.355 10.9225 113.355 8.68147 113.355 6.37727Z" fill="black"/>
<path d="M115.943 47.0007C116.29 50.9147 116.669 54.7971 117.017 58.8374C116.164 58.8374 115.375 58.8374 114.27 58.8374C114.712 54.8918 115.154 50.9147 115.596 46.9691C115.722 46.9691 115.817 47.0007 115.943 47.0007Z" fill="black"/>
<path d="M78.3695 43.9705C80.2324 43.9073 80.7692 44.2861 80.8007 45.959C80.8323 47.2216 80.8323 48.4842 80.8007 49.7468C80.7376 51.5144 80.3587 51.8616 78.3379 51.8931C78.3695 49.2733 78.3695 46.6219 78.3695 43.9705Z" fill="black"/>
</g>
<defs>
<clipPath id="clip0">
<rect width="175.747" height="148.164" fill="white" transform="translate(0 0.0012207)"/>
</clipPath>
</defs>
</svg>
