<?xml version="1.0" encoding="utf-8"?>
<!-- Generator: Adobe Illustrator 26.0.1, SVG Export Plug-In . SVG Version: 6.00 Build 0)  -->
<svg version="1.1" id="Layer_1" xmlns="http://www.w3.org/2000/svg" xmlns:xlink="http://www.w3.org/1999/xlink" x="0px" y="0px"
	 viewBox="0 0 194 90" style="enable-background:new 0 0 194 90;" xml:space="preserve">
<style type="text/css">
	.st0{fill:#C8102E;}
</style>
<g id="logo-head-name">
	<path d="M12.2,54.8c-1.7,1.8-3.4,2.8-5.2,3.1V26h2.1v-2.9H8.7c-2.7,0-5.3,0-8,0H0.3V26h2.1v32.3c-0.6,0.1-1.2,0.1-1.7,0.2H0.4v3.1
		l0.4-0.1c3.8-0.5,7.7-0.9,11.5-1.3v2l1.9-0.2V51.8L12.3,52L12.2,54.8z"/>
	<path d="M35.8,55.3c-0.6-4.3-1.1-8.6-1.7-12.9c0.8,0,1.6-0.1,2.4-0.1h0.4v-2.8h-0.4c-0.9,0-1.9,0.1-2.8,0.1
		c-0.8-5.7-1.6-11.5-2.3-17.3V22h-2l-0.1,0.3c-1.2,5.9-2.4,11.9-3.5,17.7c-0.9,0-1.8,0.1-2.7,0.1h-0.4V43h0.4c0.7,0,1.4-0.1,2.1-0.1
		c-0.4,2.2-0.7,3.8-1.2,6.4l-0.3,1.4c-0.5,2.6-0.7,3.6-1.2,5.8c-0.6,0-1.1,0.1-1.7,0.1h-0.4v2.9h0.4c2.2-0.2,4.4-0.4,6.5-0.6h0.4V56
		h-0.4c-0.5,0-0.9,0.1-1.4,0.1c0-4.2,0.2-6.4,1.1-11.6l0.3-1.8c0.8,0,1.6-0.1,2.4-0.1c0.6,4.4,1.1,8.7,1.7,13c-0.5,0-1,0.1-1.5,0.1
		h-0.4v2.9h0.4c2.6-0.2,5.2-0.4,7.8-0.6h0.4v-2.8h-0.4C36.8,55.3,36.3,55.3,35.8,55.3z M27.5,39.9c0.3-1.8,0.6-3.7,0.9-5.5
		c0.2,1.8,0.5,3.6,0.7,5.5C28.6,39.8,28.1,39.8,27.5,39.9z"/>
	<path d="M51.5,39h-0.4v2.8h0.4c0.9,0,1.9-0.1,2.8-0.1v12.9c-0.7,0.4-0.9,0.5-1.7,0.6c-0.7,0-1.1-0.1-1.5-0.4
		c-1.2-1.2-1.7-5.4-1.7-14.7c0-13.1,1.2-15.4,3.8-15.4l0,0c0.6,0,1.2,0.3,1.7,0.8c1.4,1.4,2.1,4.3,2.1,8.2V34h1.9V21.9H57v1.9
		c-1-1.1-1.9-1.9-3.8-1.9l0,0c-2.6,0-4.7,1.6-6.1,4.7c-1.5,3.1-2.2,7.7-2.2,13.7c0,8.2,1.4,13.8,4.1,16.4c1,1,2.2,1.5,3.5,1.5
		c0.1,0,0.2,0,0.3,0c0.9-0.1,1.6-0.3,2.3-0.6s1.4-0.5,2.2-0.6c1-0.1,2.1-0.1,3.2-0.1h0.4v-2.8h-0.4c-0.4,0-0.9,0-1.3,0.1V41.8h1.4
		H61V39h-0.4C57.3,38.8,54.4,38.9,51.5,39z"/>
	<path d="M80.4,22.9H80v2.6h2.2c0.2,3.1,0.6,13,0.6,17.6c0,7.1-1.8,11.2-4.9,11.3c-0.8,0-1.3-0.2-1.7-0.5c-0.8-0.8-1.2-2.8-1.2-6.3
		v-22h2.1V23h-0.4c-2.7,0-5.3,0-8,0h-0.4v2.7h2.1v18.8c0,5.2,1,8.9,3.1,10.9c1.1,1.1,2.6,1.7,4.3,1.7c0.1,0,0.1,0,0.2,0
		c3.1-0.1,6.8-2.6,6.8-14c0-4.3,0.6-13.9,0.9-17.4H88v-2.6h-0.4C85.2,22.9,82.8,22.9,80.4,22.9z"/>
	<path d="M113.5,22.9c-2.2,0-4.5,0-6.7,0h-0.4v2.6h2.2c0,0.1,0,0.3,0,0.4c0.2,2.4,0.5,8.1,0.5,15.6v0.7c-3.1-6.6-6.2-13.3-9-19.2
		l-0.1-0.2h-5.3v2.6h1l2.2,4.9v6.1c0,5.4-0.2,11-0.7,16.6c-0.6,0-1.1,0-1.7,0H95v2.7h0.4c2.2,0,4.5,0,6.8,0h0.4V53h-0.4
		c-0.6,0-1.2,0-1.8,0c-0.2-1.9-0.6-8.4-0.6-16.5v-1.9c3.4,7.4,6.7,14.8,10.1,22.2l0.2,0.4l1.1-0.5V41.5c0-8.2,0.5-13.9,0.7-16.1h2
		v-2.6L113.5,22.9z"/>
	<path d="M129.9,53.8c-0.6,0-1.1,0-1.7-0.1V25.5h2.1v-2.7h-0.4c-2.7,0-5.3,0-8,0h-0.4v2.7h2.1v28c-0.6,0-1.1,0-1.7-0.1h-0.4v2.7h0.4
		c2.6,0.1,5.3,0.2,8,0.3h0.4v-2.8L129.9,53.8z"/>
	<path d="M148.8,21.9V23c-3.3,0-6.5,0-9.8,0v-1.1h-1.9v9.9h1.9v-3.9c0.6-1,1.6-2,2.6-2.2l0.1,28.7c-0.6,0-1.3-0.1-1.9-0.1h-0.4v2.8
		h0.4c2.8,0.2,5.7,0.3,8.6,0.5h0.4v-2.8h-0.4c-0.7,0-1.3-0.1-2-0.1l-0.1-28.9c1,0.2,1.9,1.3,2.6,2.3V32h1.9V21.9
		C150.8,21.9,148.8,21.9,148.8,21.9z"/>
	<path d="M174.1,56.7c-0.6-0.1-1.1-0.1-1.7-0.2c-0.6-4.5-1.2-9.1-1.8-13.6c0.8,0,1.6,0.1,2.4,0.1h0.4v-2.9H173c-1,0-1.9-0.1-2.9-0.1
		c-0.8-6-1.6-11.9-2.4-17.8v-0.3h-2l-0.1,0.3c-1.1,5.7-2.3,11.6-3.4,17.4c-0.9,0-1.8-0.1-2.7-0.1h-0.4v2.9h0.4
		c0.7,0,1.4,0.1,2.1,0.1c-0.4,2.3-0.7,3.9-1.3,6.6l-0.2,1c-0.5,2.4-0.7,3.4-1.2,5.4c-0.5,0-1.1-0.1-1.6-0.1h-0.4v2.9h0.4
		c2.2,0.2,4.3,0.3,6.5,0.5h0.4v-2.9h-0.4c-0.5,0-1-0.1-1.5-0.1c0-4.2,0.2-6.3,1-11.3l0.3-1.7c0.8,0,1.6,0.1,2.4,0.1
		c0.6,4.4,1.1,8.9,1.7,13.4c-0.5,0-1-0.1-1.5-0.1h-0.4v2.9h0.4c2.6,0.2,5.2,0.5,7.8,0.7h0.4v-2.9L174.1,56.7z M164.1,39.8
		c0.3-1.8,0.6-3.6,0.8-5.5c0.2,1.8,0.5,3.7,0.7,5.5C165.2,39.8,164.7,39.8,164.1,39.8z"/>
	<path d="M189.1,38.1c-0.3-0.5-0.6-1.1-0.9-1.6c-0.3-0.4-0.5-0.8-0.7-1.2c-1.6-2.5-2.3-3.5-2.3-5.9c0-1.7,0.5-3.2,1.2-4
		c0.3-0.3,0.6-0.5,0.9-0.5l0,0c1.1,0,1.8,1.5,2.8,3.9v3.8l1.9,0.1V21.2h-1.9v1.6c-0.9-0.6-1.7-0.9-2.8-0.9c-3.8,0-6.1,3.9-6.1,10.5
		c0,4.1,1.3,7,3.6,10.7c0.4,0.6,0.8,1.2,1.2,1.8c2.8,4.6,3.2,5.8,3.2,9.2c0,2.9-0.8,4-1.2,4.4c-0.3,0.3-0.7,0.4-1.1,0.4
		c-1.1-0.1-2-1.4-3.3-4.5v-3.7l-1.9-0.2v10.9l1.9,0.2v-1.4c1.2,1.1,2.2,1.7,3.2,1.8c0.2,0,0.4,0,0.5,0c1,0,1.9-0.3,2.6-1
		c1.9-1.7,3-5.5,3-10.7C193,45.7,192.1,42.9,189.1,38.1z"/>
	<path class="st0" d="M11.9,61.3c0-0.7,0-1.3,0-2C7.9,59.7,4,60.1,0,60.6c0-0.8,0-1.5,0-2.3c0.7-0.1,1.4-0.2,2.1-0.2
		c0-11,0-22,0-33.1c-0.7,0-1.4,0-2.1,0c0-0.7,0-1.4,0-2.2c2.7,0,5.3,0,8,0c0,0.7,0,1.4,0,2.1c-0.7,0-1.4,0-2.1,0
		c0,10.9,0,21.8,0,32.7c2.2-0.2,4.1-1.4,6-3.4c0-0.8,0-1.7,0-2.5c0.4,0,0.7-0.1,1.1-0.1c0,3.1,0,6.3,0,9.4
		C12.6,61.2,12.3,61.2,11.9,61.3z"/>
	<path class="st0" d="M28.9,57.7c0-0.7,0-1.4,0-2.1c0.6-0.1,1.3-0.1,1.9-0.2c-0.6-4.6-1.2-9.2-1.8-13.8c-1,0-2.1,0.1-3.1,0.1
		c-0.1,0.7-0.2,1.4-0.3,2.1c-0.9,5.3-1.1,7.4-1.1,12c0.6-0.1,1.2-0.1,1.8-0.2c0,0.7,0,1.4,0,2.1c-2.2,0.2-4.3,0.4-6.5,0.6
		c0-0.7,0-1.4,0-2.1c0.6-0.1,1.3-0.1,1.9-0.2c0.6-2.4,0.8-3.4,1.3-6.1c0.7-3.6,1.1-5.4,1.6-8.3c-0.9,0-1.7,0.1-2.6,0.1
		c0-0.7,0-1.4,0-2.1c1,0,2-0.1,3.1-0.1c1.2-6,2.4-12,3.6-18c0.4,0,0.9,0,1.3,0c0.8,5.9,1.6,11.8,2.4,17.7c1.1,0,2.1-0.1,3.2-0.1
		c0,0.7,0,1.4,0,2.1c-1,0-1.9,0.1-2.9,0.1c0.6,4.6,1.2,9.2,1.8,13.7c0.7,0,1.3-0.1,2-0.1c0,0.7,0,1.4,0,2.1
		C34.1,57.2,31.5,57.4,28.9,57.7z M27.7,30.9c-0.4,2.9-0.9,5.8-1.4,8.7c0.8,0,1.6-0.1,2.5-0.1C28.4,36.7,28.1,33.8,27.7,30.9z"/>
	<path class="st0" d="M56.6,21.6c0.4,0,0.7,0,1.1,0c0,3.8,0,7.6,0,11.3c-0.4,0-0.7,0-1.1,0c0-5.6-1.6-9.3-4.2-9.3
		c-2.7,0-4.1,2.1-4.2,15.8c0,14.2,1.2,15.6,3.6,15.5c0.9,0,1.2-0.2,2.1-0.7c0-4.5,0-9.1,0-13.6c-1.1,0-2.1,0.1-3.2,0.1
		c0-0.7,0-1.3,0-2c2.9-0.1,5.9-0.2,8.8-0.2c0,0.7,0,1.3,0,2c-0.6,0-1.2,0-1.8,0c0,4.4,0,8.8,0,13.2c0.6,0,1.2-0.1,1.8-0.1
		c0,0.7,0,1.3,0,2c-1.1,0-2.1,0.1-3.2,0.1c-1.8,0.1-2.8,1.1-4.5,1.2c-4.5,0.3-7.5-5.6-7.5-17.4c0-12.1,3.2-18,8-17.9
		c2.1,0,2.8,0.9,4.2,2.5C56.6,23.3,56.6,22.4,56.6,21.6z"/>
	<path class="st0" d="M84.6,24.5c-0.3,3.1-0.9,13.2-0.9,17.8c0,9-2.3,13.6-6.5,13.7c-4.5,0.1-7.2-4-7.2-12.2c0-6.4,0-12.8,0-19.2
		c-0.7,0-1.4,0-2.1,0c0-0.6,0-1.2,0-1.9c2.7,0,5.3,0,8,0c0,0.6,0,1.2,0,1.9c-0.7,0-1.4,0-2.1,0c0,7.5,0,14.9,0,22.4
		c0,5.9,1.1,7.3,3.3,7.2c3.2-0.1,5.3-3.9,5.3-11.7c0-4.8-0.5-15.3-0.7-18c-0.7,0-1.5,0-2.2,0c0-0.6,0-1.2,0-1.9c2.4,0,4.8,0,7.1,0
		c0,0.6,0,1.2,0,1.8C86.1,24.5,85.4,24.5,84.6,24.5z"/>
	<path class="st0" d="M108.2,24.5c-0.7,0-1.4,0-2.2,0c0-0.6,0-1.2,0-1.8c2.2,0,4.5,0,6.7,0c0,0.6,0,1.2,0,1.9c-0.7,0-1.3,0-2,0
		c-0.2,1.9-0.8,7.8-0.8,16.5c0,5,0,9.9,0,14.9c-0.2,0.1-0.3,0.2-0.5,0.2c-3.6-8-7.2-16-10.8-23.9c0,1.2,0,2.5,0,3.7
		c0,8.5,0.5,15.3,0.6,16.9c0.7,0,1.4,0,2.1,0c0,0.6,0,1.3,0,1.9c-2.3,0-4.5,0-6.8,0c0-0.6,0-1.3,0-1.9c0.7,0,1.4,0,2,0
		c0.1-1.5,0.8-8.4,0.8-17c0-2.1,0-4.2,0-6.2c-0.8-1.7-1.5-3.5-2.3-5.2c-0.3,0-0.6,0-0.9,0c0-0.6,0-1.2,0-1.8c1.6,0,3.1,0,4.7,0
		c3.3,6.9,6.5,13.8,9.8,20.8c0-0.8,0-1.7,0-2.5C108.8,32.4,108.3,26.1,108.2,24.5z"/>
	<path class="st0" d="M121.1,55.3c0-0.7,0-1.3,0-2c0.7,0,1.4,0,2.1,0.1c0-9.6,0-19.2,0-28.8c-0.7,0-1.4,0-2.1,0c0-0.6,0-1.2,0-1.9
		c2.7,0,5.3,0,8,0c0,0.6,0,1.3,0,1.9c-0.7,0-1.4,0-2.1,0c0,9.6,0,19.3,0,28.9c0.7,0,1.4,0.1,2.1,0.1c0,0.7,0,1.3,0,2
		C126.5,55.4,123.8,55.3,121.1,55.3z"/>
	<path class="st0" d="M148.4,22.7c0-0.4,0-0.7,0-1.1c0.4,0,0.7,0,1.1,0c0,3.1,0,6.2,0,9.3c-0.4,0-0.7,0-1.1,0c0-1.2,0-2.4,0-3.7
		c-0.8-1.4-2.1-2.6-3.3-2.6c0,9.9,0,19.8,0.1,29.7c0.8,0,1.6,0.1,2.4,0.1c0,0.7,0,1.4,0,2c-2.9-0.2-5.7-0.4-8.6-0.5c0-0.7,0-1.3,0-2
		c0.8,0,1.6,0.1,2.4,0.1c0-9.8,0-19.7-0.1-29.5c-1.2,0-2.5,1.2-3.3,2.6c0,1.2,0,2.4,0,3.6c-0.4,0-0.7,0-1.1,0c0-3,0-6.1,0-9.1
		c0.4,0,0.7,0,1.1,0c0,0.4,0,0.7,0,1.1C141.4,22.7,144.9,22.7,148.4,22.7z"/>
	<path class="st0" d="M165.6,57.9c0-0.7,0-1.4,0-2.1c0.6,0.1,1.3,0.1,1.9,0.2c-0.6-4.8-1.2-9.5-1.8-14.2c-1-0.1-2.1-0.1-3.1-0.1
		c-0.1,0.7-0.2,1.4-0.3,2.1c-0.9,5.1-1,7.2-1,11.8c0.6,0,1.2,0.1,1.8,0.1c0,0.7,0,1.4,0,2.1c-2.2-0.2-4.3-0.4-6.5-0.5
		c0-0.7,0-1.4,0-2.1c0.6,0,1.3,0.1,1.9,0.1c0.6-2.2,0.8-3.2,1.3-5.7c0.7-3.5,1.1-5.2,1.6-8c-0.9,0-1.7-0.1-2.6-0.1
		c0-0.7,0-1.4,0-2.1c1,0,2,0.1,3.1,0.1c1.2-5.9,2.3-11.8,3.5-17.8c0.4,0,0.9,0,1.3,0c0.8,6,1.6,12,2.4,18.1c1.1,0,2.1,0.1,3.2,0.2
		c0,0.7,0,1.4,0,2.1c-1-0.1-1.9-0.1-2.9-0.2c0.6,4.8,1.2,9.5,1.9,14.3c0.7,0.1,1.3,0.1,2,0.2c0,0.7,0,1.4,0,2.1
		C170.8,58.4,168.2,58.1,165.6,57.9z M164.3,30.9c-0.4,2.9-0.9,5.8-1.3,8.6c0.8,0,1.6,0.1,2.4,0.1C165.1,36.7,164.7,33.8,164.3,30.9
		z"/>
	<path class="st0" d="M182.6,58.6c0,0.7,0,1.3,0,2c-0.4,0-0.7-0.1-1.1-0.1c0-3.4,0-6.7,0-10.1c0.4,0,0.7,0.1,1.1,0.1
		c0,1.1,0,2.3,0,3.4c1.4,3.4,2.4,4.7,3.7,4.8c1.4,0.2,2.8-1.4,2.8-5.2c0-3.6-0.5-4.9-3.3-9.4c-0.4-0.6-0.8-1.2-1.2-1.9
		c-2.3-3.7-3.5-6.5-3.5-10.4c0-6.3,2.1-10.1,5.7-10.1c1.3,0,2.1,0.5,3.2,1.3c0-0.6,0-1.3,0-1.9c0.4,0,0.7,0,1.1,0
		c0,3.6,0,7.2,0,10.8c-0.4,0-0.7,0-1.1,0c0-1.2,0-2.4,0-3.5c-1.1-2.7-1.8-4.2-3.2-4.2s-2.6,2.1-2.6,4.8c0,2.9,0.9,3.8,3.1,7.3
		c0.3,0.5,0.6,1.1,0.9,1.6c3,4.7,3.9,7.4,3.9,12c0,7.5-2.2,11.8-5.7,11.3C185,60.9,184,60.1,182.6,58.6z"/>
	<path d="M46.8,65.4c0-0.1,0-0.2-0.1-0.2s-0.2,0-0.3-0.1v-0.2h3.5c0.3,0,0.6,0,0.9,0.1c0.2,0,0.4,0.1,0.6,0.2
		c0.2,0.1,0.3,0.2,0.3,0.4c0.1,0.2,0.1,0.4,0.1,0.7c0,0.3-0.1,0.5-0.2,0.7c-0.2,0.2-0.3,0.4-0.5,0.5c0.3,0.1,0.6,0.3,0.7,0.5
		c0.2,0.2,0.2,0.5,0.2,0.9c0,0.5-0.2,0.9-0.5,1.2c-0.3,0.3-0.9,0.4-1.6,0.4h-3.6v-0.2c0.1,0,0.2,0,0.3-0.1c0.1,0,0.1-0.1,0.1-0.2
		L46.8,65.4L46.8,65.4z M49.8,67.4c0.3,0,0.5-0.1,0.6-0.2s0.2-0.3,0.2-0.4c0-0.3-0.1-0.4-0.2-0.5c-0.1-0.1-0.3-0.1-0.6-0.1h-1.4v1.2
		H49.8z M49.6,69.7c0.3,0,0.5-0.1,0.7-0.2s0.3-0.3,0.3-0.5s0-0.3-0.1-0.4s-0.1-0.2-0.2-0.2c-0.1,0-0.2-0.1-0.3-0.1s-0.2,0-0.3,0
		h-1.3v1.4C48.4,69.7,49.6,69.7,49.6,69.7z"/>
	<path d="M58.1,65.4c0-0.1,0-0.2-0.1-0.2s-0.1,0-0.2-0.1v-0.2h3.7c0.6,0,1,0.2,1.4,0.5c0.3,0.3,0.5,0.8,0.5,1.4
		c0,0.5-0.1,0.8-0.4,1.1c-0.2,0.3-0.6,0.5-0.9,0.6l1,1.7c0,0.1,0.1,0.1,0.2,0.2s0.2,0.1,0.2,0.1v0.2h-2.4v-0.2c0.1,0,0.1,0,0.2,0
		c0.1,0,0.1-0.1,0.1-0.1s0-0.2-0.1-0.3s-0.2-0.4-0.3-0.6s-0.2-0.4-0.3-0.6s-0.2-0.3-0.2-0.3h-1.1v1.7c0,0.1,0,0.2,0.1,0.2
		s0.1,0,0.2,0.1v0.2h-2v-0.2c0,0,0.1,0,0.2-0.1c0.1,0,0.1-0.1,0.1-0.2L58.1,65.4L58.1,65.4z M61.2,67.5c0.2,0,0.4-0.1,0.6-0.2
		c0.1-0.1,0.2-0.3,0.2-0.5s-0.1-0.4-0.2-0.5c-0.1-0.1-0.4-0.2-0.7-0.2h-1.6v1.4C59.5,67.5,61.2,67.5,61.2,67.5z"/>
	<path d="M74.3,69.6c0.2,0,0.3-0.1,0.3-0.3h0.1V71h-0.1c0-0.1-0.1-0.2-0.1-0.2s-0.1,0-0.2,0h-5.2v-0.2c0.1,0,0.2,0,0.2-0.1
		c0.1,0,0.1-0.1,0.1-0.2v-4.9c0-0.1,0-0.2-0.1-0.2s-0.1,0-0.2-0.1v-0.2h5.3c0,0,0.1,0,0.1-0.1c0,0,0.1-0.1,0.1-0.2h0.1v1.7h-0.1
		c0-0.1,0-0.2-0.1-0.3l-0.1-0.1H71V67h2.2c0,0,0.1,0,0.1-0.1c0,0,0.1-0.1,0.1-0.2h0.1v1.7h-0.1c0-0.1,0-0.2-0.1-0.2l-0.1-0.1H71v1.3
		L74.3,69.6L74.3,69.6z"/>
	<path d="M82.2,65.2c-0.1,0-0.1,0-0.2,0s-0.1,0.1-0.1,0.2c0,0,0,0.1,0.1,0.3c0,0.2,0.1,0.3,0.2,0.6c0.1,0.2,0.1,0.4,0.2,0.7
		c0.1,0.2,0.1,0.5,0.2,0.7s0.1,0.4,0.2,0.6s0.1,0.3,0.1,0.4l0,0c0-0.1,0.1-0.2,0.1-0.4c0.1-0.2,0.1-0.4,0.2-0.6s0.2-0.5,0.2-0.7
		c0.1-0.2,0.2-0.5,0.2-0.7c0.1-0.2,0.1-0.4,0.2-0.5c0-0.2,0.1-0.3,0.1-0.3c0-0.1,0-0.2-0.1-0.2s-0.1,0-0.2,0v-0.2H86v0.2
		c-0.1,0-0.2,0-0.2,0c-0.1,0-0.1,0.1-0.1,0.2c0,0,0,0.1,0.1,0.3c0.1,0.2,0.1,0.3,0.2,0.6c0.1,0.2,0.2,0.5,0.2,0.7
		c0.1,0.3,0.2,0.5,0.3,0.7c0.1,0.2,0.2,0.4,0.2,0.6c0.1,0.2,0.1,0.3,0.1,0.4l0,0c0-0.1,0-0.2,0.1-0.4c0.1-0.2,0.1-0.4,0.2-0.6
		s0.1-0.5,0.2-0.7s0.1-0.5,0.2-0.7s0.1-0.4,0.2-0.6c0-0.2,0.1-0.3,0.1-0.3c0-0.1,0-0.2-0.1-0.2s-0.1,0-0.2,0v-0.2h1.9v0.2
		c-0.1,0-0.2,0.1-0.2,0.1c0,0.1-0.1,0.1-0.1,0.2s-0.1,0.3-0.2,0.5c-0.1,0.3-0.2,0.6-0.3,0.9c-0.1,0.4-0.2,0.7-0.3,1.1
		c-0.1,0.4-0.2,0.8-0.3,1.1c-0.1,0.3-0.2,0.6-0.2,0.8c-0.1,0.2-0.1,0.3-0.1,0.4s0.1,0.1,0.3,0.2v0.2h-2.5v-0.2
		c0.2,0,0.3-0.1,0.3-0.2c0,0,0-0.1-0.1-0.3c0-0.2-0.1-0.3-0.2-0.6c-0.1-0.2-0.1-0.4-0.2-0.7c-0.1-0.3-0.2-0.5-0.2-0.7
		c-0.1-0.2-0.1-0.4-0.2-0.6s-0.1-0.3-0.1-0.4l0,0c0,0.1-0.1,0.2-0.1,0.4c-0.1,0.2-0.1,0.4-0.2,0.6s-0.2,0.5-0.2,0.7
		c-0.1,0.3-0.2,0.5-0.2,0.7c-0.1,0.2-0.1,0.4-0.2,0.6c0,0.2-0.1,0.3-0.1,0.3c0,0.1,0,0.1,0.1,0.1s0.1,0,0.2,0.1v0.2h-2.4v-0.2
		c0.2,0,0.3-0.1,0.3-0.2c0,0,0-0.2-0.1-0.4c-0.1-0.3-0.2-0.6-0.3-0.9s-0.2-0.7-0.3-1.2c-0.1-0.4-0.2-0.8-0.3-1.2
		c-0.1-0.4-0.2-0.7-0.3-0.9c-0.1-0.3-0.1-0.4-0.1-0.4c0-0.1,0-0.1-0.1-0.1h-0.1v-0.2h2L82.2,65.2L82.2,65.2z"/>
	<path d="M96.9,65.2c-0.1,0-0.2,0-0.3,0.1c-0.1,0-0.1,0.1-0.1,0.2v4.9c0,0.1,0,0.2,0.1,0.2s0.2,0,0.3,0.1v0.2h-2.3v-0.2
		c0.1,0,0.2,0,0.3-0.1c0.1,0,0.1-0.1,0.1-0.2v-4.9c0-0.1,0-0.2-0.1-0.2s-0.2,0-0.3-0.1V65h2.3V65.2z"/>
	<path d="M108.7,70.4c0,0.1,0,0.2,0.1,0.2s0.1,0,0.2,0.1v0.2h-2.2v-0.2c0.1,0,0.1,0,0.2,0s0.1-0.1,0.1-0.1c0-0.1-0.1-0.2-0.3-0.4
		c-0.2-0.2-0.4-0.5-0.7-0.8c-0.3-0.3-0.6-0.7-0.9-1s-0.7-0.8-1-1.2l0,0v3.4c0,0.1,0,0.2,0.1,0.2s0.1,0,0.2,0.1v0.2h-2v-0.2
		c0.1,0,0.1,0,0.2-0.1c0.1,0,0.1-0.1,0.1-0.2v-4.9c0-0.1,0-0.2-0.1-0.2s-0.1,0-0.2-0.1v-0.2h2.8v0.2c-0.1,0-0.1,0-0.2,0.1
		c-0.1,0-0.1,0.1-0.1,0.2c0,0,0.1,0.1,0.2,0.3c0.1,0.2,0.3,0.4,0.5,0.6s0.4,0.5,0.7,0.8c0.2,0.3,0.5,0.6,0.7,0.9v-2.6
		c0-0.1,0-0.2-0.1-0.2s-0.1,0-0.2-0.1v-0.2h2v0.2c-0.1,0-0.2,0-0.2,0.1c-0.1,0-0.1,0.1-0.1,0.2L108.7,70.4L108.7,70.4z"/>
	<path d="M120.4,69.4c0,0.1,0,0.2,0.1,0.2c0,0.1,0.1,0.1,0.2,0.1h0.1v0.2c-0.2,0.1-0.4,0.2-0.6,0.3c-0.2,0.1-0.5,0.2-0.8,0.3
		c-0.3,0.1-0.6,0.2-0.9,0.2s-0.6,0.1-0.9,0.1c-0.5,0-0.9-0.1-1.2-0.2c-0.4-0.1-0.7-0.3-1-0.5s-0.5-0.5-0.6-0.9
		c-0.2-0.4-0.2-0.8-0.2-1.3s0.1-1,0.3-1.3c0.2-0.4,0.4-0.7,0.7-0.9c0.3-0.2,0.6-0.4,1-0.5s0.8-0.2,1.1-0.2c0.3,0,0.6,0,0.8,0.1
		c0.2,0,0.5,0.1,0.6,0.1c0.2,0.1,0.3,0.1,0.5,0.1c0.1,0,0.2,0.1,0.2,0.1c0.1,0,0.1,0,0.1,0s0-0.1,0.1-0.1h0.1l-0.6,1.7l-0.1-0.1
		v-0.1c0-0.1-0.1-0.2-0.2-0.2c-0.1-0.1-0.2-0.1-0.4-0.2c-0.2-0.1-0.3-0.1-0.5-0.1s-0.3,0-0.5,0s-0.5,0-0.7,0.1s-0.4,0.2-0.6,0.3
		c-0.2,0.1-0.3,0.3-0.4,0.5S116,67.7,116,68s0,0.6,0.1,0.8c0.1,0.2,0.2,0.4,0.4,0.5c0.2,0.1,0.4,0.2,0.6,0.3
		c0.2,0.1,0.5,0.1,0.7,0.1s0.4,0,0.6,0s0.4-0.1,0.6-0.1v-0.8h-1c-0.1,0-0.2,0-0.2,0.1s0,0.1,0,0.2h-0.1v-1.6h0.1c0,0.1,0,0.1,0,0.2
		s0.1,0.1,0.2,0.1h2.4L120.4,69.4L120.4,69.4z"/>
	<path d="M138.9,67.2l-0.2-0.1V67v-0.1c0-0.1,0-0.1-0.1-0.2s-0.2-0.1-0.4-0.2s-0.3-0.1-0.5-0.1s-0.4-0.1-0.6-0.1
		c-0.2,0-0.4,0-0.7,0.1c-0.2,0.1-0.4,0.2-0.6,0.3c-0.2,0.1-0.3,0.3-0.4,0.5c-0.1,0.2-0.2,0.4-0.2,0.7c0,0.3,0.1,0.5,0.2,0.7
		c0.1,0.2,0.3,0.4,0.4,0.5c0.2,0.1,0.4,0.2,0.6,0.3c0.2,0.1,0.4,0.1,0.7,0.1c0.2,0,0.5,0,0.7-0.1s0.4-0.1,0.5-0.2
		c0.2-0.1,0.3-0.2,0.4-0.3c0.1-0.1,0.1-0.2,0.1-0.2v-0.1c0-0.1,0-0.1,0-0.1l0.1-0.1l1.1,1.8l-0.1,0.1c-0.1-0.1-0.1-0.1-0.2-0.1
		c0,0-0.1,0-0.3,0.1c-0.1,0.1-0.3,0.2-0.5,0.3s-0.5,0.2-0.8,0.3c-0.3,0.1-0.6,0.1-1,0.1s-0.8,0-1.2-0.1s-0.8-0.3-1.1-0.5
		s-0.6-0.5-0.8-0.9s-0.3-0.8-0.3-1.4c0-0.5,0.1-1,0.3-1.4s0.4-0.7,0.8-0.9c0.3-0.2,0.7-0.4,1.1-0.5c0.4-0.1,0.8-0.2,1.2-0.2
		c0.3,0,0.5,0,0.7,0.1c0.2,0,0.5,0.1,0.7,0.1c0.2,0.1,0.4,0.1,0.5,0.1s0.3,0.1,0.3,0.1h0.1l0.1-0.1l0.1,0.1L138.9,67.2z"/>
	<path d="M144.8,65c0.2,0,0.4,0,0.7,0.1c0.2,0.1,0.4,0.2,0.6,0.3c0.2,0.1,0.3,0.3,0.4,0.6s0.2,0.5,0.2,0.8s-0.1,0.6-0.2,0.8
		c-0.1,0.2-0.3,0.4-0.4,0.6c-0.2,0.1-0.4,0.2-0.6,0.3c-0.2,0.1-0.5,0.1-0.7,0.1s-0.4,0-0.7-0.1c-0.2-0.1-0.4-0.2-0.6-0.3
		c-0.2-0.1-0.3-0.3-0.4-0.6c-0.1-0.2-0.2-0.5-0.2-0.8s0.1-0.6,0.2-0.8c0.1-0.2,0.3-0.4,0.4-0.6c0.2-0.1,0.4-0.3,0.6-0.3
		C144.3,65,144.5,65,144.8,65z M144.8,65.8c-0.1,0-0.2,0-0.4,0.1c-0.1,0-0.2,0.1-0.3,0.2s-0.2,0.2-0.2,0.3c0,0.1-0.1,0.2-0.1,0.4
		c0,0.1,0,0.3,0.1,0.4c0,0.1,0.1,0.2,0.2,0.3c0.1,0.1,0.2,0.1,0.3,0.2c0.1,0,0.2,0.1,0.4,0.1c0.1,0,0.3,0,0.4-0.1
		c0.1,0,0.2-0.1,0.3-0.2s0.2-0.2,0.2-0.3c0-0.1,0.1-0.2,0.1-0.4c0-0.1,0-0.3-0.1-0.4c0-0.1-0.1-0.2-0.2-0.3
		c-0.1-0.1-0.2-0.1-0.3-0.2S144.9,65.8,144.8,65.8z"/>
	<path d="M144.8,70.6c0.3,0,0.5-0.2,0.5-0.5s-0.2-0.5-0.5-0.5s-0.5,0.2-0.5,0.5S144.5,70.6,144.8,70.6z"/>
</g>
</svg>
